#N canvas 0 0 1328 1022 12;
#X obj 40 26 loadbang;
#X msg 41 118 1;
#X obj 42 146 s triggerAutomaton;
#X obj 402 898 hip~ 15;
#X obj 402 948 dac~ 1 2;
#X obj 37 600 bng 15 250 50 0 empty empty empty 17 7 0 10 #fcfcfc #000000
#000000;
#X obj 623 191 r automatonRow;
#X obj 735 247 unpack 0 0 0 0 0 0 0 0;
#X obj 992 308 s drum7;
#X obj 1054 308 s drum8;
#X text 270 24 vary the metro based on automaton;
#X obj 63 522 r base;
#N canvas 261 6 1119 887 base 0;
#X obj 593 297 osc~;
#N canvas 868 112 694 849 qenv 0;
#X obj 213 368 outlet~;
#X obj 212 299 *~;
#X obj 245 182 line~;
#X msg 249 93 1 0;
#X obj 307 91 del 1;
#X msg 307 132 0 300;
#X obj 196 48 inlet;
#X text 506 294 quartic envelope;
#X obj 211 262 *~;
#X text 276 281 power of 4;
#X text 380 115 0.4 immediately \, then 1 ms delay and goes to 0;
#X text 482 138 could be vline;
#X obj 33 147 vline~;
#X msg 39 91 0.75 0 \, 0.1 600 200;
#X connect 1 0 0 0;
#X connect 3 0 2 0;
#X connect 4 0 5 0;
#X connect 5 0 2 0;
#X connect 6 0 3 0;
#X connect 6 0 4 0;
#X connect 6 0 13 0;
#X connect 8 0 1 0;
#X connect 8 0 1 1;
#X connect 12 0 8 0;
#X connect 12 0 8 1;
#X connect 13 0 12 0;
#X restore 562 189 pd qenv;
#X msg 629 253 0;
#X obj 599 359 *~;
#X obj 618 788 dac~;
#X obj 656 142 bng 15 250 50 0 empty empty empty 17 7 0 10 #fcfcfc
#000000 #000000;
#X obj 586 109 inlet;
#X obj 688 793 outlet~;
#X obj 600 452 clip~ -0.5 0.5;
#X obj 593 395 *~;
#X floatatom 693 365 5 0 0 0 - - - 0;
#X obj 552 250 +~ 20;
#X obj 602 492 lop~ 300;
#X obj 614 546 lop~ 300;
#X obj 611 597 lop~ 300;
#X obj 617 671 *~ 3;
#X obj 616 727 clip~ -0.9 0.9;
#X floatatom 737 475 5 0 0 0 - - - 0;
#X obj 552 226 *~ 50;
#X obj 737 267 loadbang;
#X msg 737 447 400;
#X msg 694 327 10;
#X obj 663 762 *~ 0.5;
#X connect 0 0 3 0;
#X connect 1 0 3 1;
#X connect 1 0 18 0;
#X connect 2 0 0 1;
#X connect 3 0 9 0;
#X connect 5 0 1 0;
#X connect 5 0 2 0;
#X connect 6 0 1 0;
#X connect 6 0 2 0;
#X connect 8 0 12 0;
#X connect 9 0 8 0;
#X connect 10 0 9 1;
#X connect 11 0 0 0;
#X connect 12 0 13 0;
#X connect 13 0 14 0;
#X connect 14 0 15 0;
#X connect 15 0 16 0;
#X connect 16 0 22 0;
#X connect 17 0 12 1;
#X connect 17 0 13 1;
#X connect 17 0 14 1;
#X connect 18 0 11 0;
#X connect 19 0 21 0;
#X connect 19 0 20 0;
#X connect 20 0 17 0;
#X connect 21 0 10 0;
#X connect 22 0 7 0;
#X restore 1089 671 pd base;
#X obj 618 308 s base;
#X obj 167 591 bng 15 250 50 0 empty empty empty 17 7 0 10 #fcfcfc
#000000 #000000;
#N canvas 613 35 1067 958 drum1 0;
#X obj 242 20 inlet;
#X obj 204 174 line~;
#X obj 204 198 osc~;
#X obj 238 259 *~;
#X obj 428 76 bng 40 250 50 0 empty empty empty 17 7 0 10 #fcfcfc #000000
#000000;
#X obj 377 246 line~;
#X obj 168 475 outlet~;
#X obj 231 288 *~;
#X obj 585 159 vsl 15 128 0 1 0 0 empty empty empty 0 -9 0 10 #fcfcfc
#000000 #000000 0 1;
#X msg 576 105 1;
#X obj 586 69 loadbang;
#X obj 96 534 dac~;
#X obj 204 563 drum_reverb;
#X obj 396 563 drum_reverb;
#X obj 587 569 drum_reverb;
#X obj 191 340 s~ drum-reverb-1;
#X obj 180 379 catch~ drum-mix-1;
#X obj 204 524 r~ drum-reverb-1;
#X obj 396 524 r~ drum-reverb-1;
#X obj 587 530 r~ drum-reverb-1;
#X obj 204 587 throw~ drum-mix-1;
#X obj 396 587 throw~ drum-mix-1;
#X obj 587 593 throw~ drum-mix-1;
#X msg 377 222 1 0 \, 0 1000;
#X obj 316 394 unpack 0 0 0 0 0;
#X obj 724 573 drum_reverb;
#X obj 724 534 r~ drum-reverb-1;
#X obj 724 597 throw~ drum-mix-1;
#X obj 892 573 drum_reverb;
#X obj 892 534 r~ drum-reverb-1;
#X obj 892 597 throw~ drum-mix-1;
#X obj 168 441 *~ 0.25;
#X obj 349 320 loadbang;
#X obj 230 58 sel 1 2;
#X obj 265 109 bng 15 250 50 0 empty empty empty 17 7 0 10 #fcfcfc
#000000 #000000;
#X obj 302 109 bng 15 250 50 0 empty empty empty 17 7 0 10 #fcfcfc
#000000 #000000;
#X msg 204 150 \$1 0 \, 100 110;
#X msg 194 101 600;
#X msg 134 102 500;
#X msg 323 358 45 30 20 25 37;
#X msg 480 368 22 29 37 45 32;
#X connect 0 0 33 0;
#X connect 0 0 4 0;
#X connect 1 0 2 0;
#X connect 2 0 3 0;
#X connect 3 0 7 0;
#X connect 3 0 31 0;
#X connect 4 0 23 0;
#X connect 5 0 3 1;
#X connect 7 0 15 0;
#X connect 8 0 7 1;
#X connect 9 0 8 0;
#X connect 10 0 9 0;
#X connect 12 0 20 0;
#X connect 13 0 21 0;
#X connect 14 0 22 0;
#X connect 16 0 31 0;
#X connect 17 0 12 0;
#X connect 18 0 13 0;
#X connect 19 0 14 0;
#X connect 23 0 5 0;
#X connect 24 0 12 1;
#X connect 24 1 13 1;
#X connect 24 2 14 1;
#X connect 24 3 25 1;
#X connect 24 4 28 1;
#X connect 25 0 27 0;
#X connect 26 0 25 0;
#X connect 28 0 30 0;
#X connect 29 0 28 0;
#X connect 31 0 6 0;
#X connect 32 0 39 0;
#X connect 33 0 38 0;
#X connect 33 0 34 0;
#X connect 33 1 37 0;
#X connect 33 1 35 0;
#X connect 36 0 1 0;
#X connect 37 0 36 0;
#X connect 38 0 36 0;
#X connect 39 0 24 0;
#X connect 40 0 24 0;
#X restore 239 581 pd drum1;
#N canvas 765 72 832 887 drum2 0;
#X obj 242 20 inlet;
#X obj 204 174 line~;
#X obj 204 198 osc~;
#X obj 238 259 *~;
#X obj 378 148 bng 40 250 50 0 empty empty empty 17 7 0 10 #fcfcfc
#000000 #000000;
#X obj 377 246 line~;
#X obj 236 322 outlet~;
#X msg 204 150 1000 0 \, 60 20;
#X msg 377 222 0.5 0 \, 0 100;
#X connect 0 0 4 0;
#X connect 1 0 2 0;
#X connect 2 0 3 0;
#X connect 3 0 6 0;
#X connect 4 0 8 0;
#X connect 4 0 7 0;
#X connect 5 0 3 1;
#X connect 7 0 1 0;
#X connect 8 0 5 0;
#X restore 376 590 pd drum2;
#X obj 322 603 bng 15 250 50 0 empty empty empty 17 7 0 10 #fcfcfc
#000000 #000000;
#X obj 681 308 s drum1;
#X obj 743 308 s drum2;
#X obj 214 504 r drum1;
#X obj 351 513 r drum2;
#X obj 73 564 sel 1;
#X obj 351 537 sel 1;
#X obj 508 468 noise~;
#X obj 508 492 lop~ 300;
#X obj 508 516 lop~ 300;
#X obj 506 549 lop~ 300;
#X obj 402 874 *~ 0.075;
#X obj 40 90 metro 180;
#X obj 652 741 *~ 0.99;
#X obj 652 770 lop~ 1000;
#X obj 654 816 delwrite~ noise-delay 1000;
#X obj 653 713 vd~ noise-delay;
#X obj 521 685 *~;
#X obj 631 527 line~;
#X obj 805 308 s drum3;
#X obj 930 308 s drum4;
#X obj 1064 466 r drum4;
#X floatatom 1141 537 5 0 0 0 - - - 0;
#X msg 1025 200 1 0 1 1 1 0 1 2;
#X obj 693 90 random 3;
#X obj 761 90 random 3;
#X obj 830 90 random 3;
#X obj 898 90 random 3;
#X obj 968 90 random 3;
#X obj 1036 90 random 3;
#X obj 1105 90 random 3;
#X obj 1173 90 random 3;
#X obj 861 148 pack 0 0 0 0 0 0 0 0;
#X obj 885 15 tgl 15 0 empty empty empty 17 7 0 10 #fcfcfc #000000
#000000 0 1;
#X obj 887 45 metro 200;
#X obj 721 462 bng 15 250 50 0 empty empty empty 17 7 0 10 #fcfcfc
#000000 #000000;
#X obj 680 408 sel 1;
#X obj 680 384 r drum3;
#N canvas 508 28 1172 958 drum0 0;
#X obj 242 20 inlet;
#X obj 204 174 line~;
#X obj 204 198 osc~;
#X obj 378 148 bng 40 250 50 0 empty empty empty 17 7 0 10 #fcfcfc
#000000 #000000;
#X obj 377 246 line~;
#X obj 180 690 outlet~;
#X obj 252 304 *~;
#X obj 585 166 vsl 15 128 0 1 0 0 empty empty empty 0 -9 0 10 #fcfcfc
#000000 #000000 0 1;
#X msg 576 105 1;
#X obj 586 69 loadbang;
#X obj 107 694 dac~;
#X obj 386 641 drum_reverb;
#X obj 578 641 drum_reverb;
#X obj 769 647 drum_reverb;
#X obj 585 477 unpack 0 0 0;
#X msg 585 453 40 20 30;
#X msg 377 222 1 0 \, 0 2000;
#X obj 238 259 *~ 1;
#X obj 191 340 s~ drum-reverb-0;
#X obj 206 392 catch~ drum-mix-0;
#X obj 386 602 r~ drum-reverb-0;
#X obj 578 602 r~ drum-reverb-0;
#X obj 769 608 r~ drum-reverb-0;
#X obj 769 671 throw~ drum-mix-0;
#X obj 578 665 throw~ drum-mix-0;
#X obj 386 665 throw~ drum-mix-0;
#X obj 610 347 loadbang;
#X obj 85 567 *~ 0.75;
#X msg 204 150 80 0 \, 10 180;
#X connect 0 0 3 0;
#X connect 1 0 2 0;
#X connect 2 0 17 0;
#X connect 3 0 16 0;
#X connect 3 0 28 0;
#X connect 6 0 18 0;
#X connect 7 0 6 1;
#X connect 8 0 7 0;
#X connect 9 0 8 0;
#X connect 11 0 25 0;
#X connect 12 0 24 0;
#X connect 13 0 23 0;
#X connect 14 0 11 1;
#X connect 14 0 12 1;
#X connect 14 0 13 1;
#X connect 15 0 14 0;
#X connect 16 0 4 0;
#X connect 17 0 6 0;
#X connect 17 0 27 0;
#X connect 19 0 27 0;
#X connect 20 0 11 0;
#X connect 21 0 12 0;
#X connect 22 0 13 0;
#X connect 26 0 15 0;
#X connect 27 0 5 0;
#X connect 28 0 1 0;
#X restore 165 711 pd drum0;
#N canvas 173 0 1121 1022 sample 0;
#X obj 385 563 *~;
#X obj 154 300 / 44100;
#X msg 105 346 1;
#X obj 143 392 /;
#X obj 385 473 phasor~;
#X obj 230 572 *~;
#X obj 323 550 / 2;
#N canvas 0 22 450 278 (subpatch) 0;
#X array beep01 84699 float 2;
#X coords 0 1 84699 -1 200 140 1 0 0;
#X restore 882 81 graph;
#X obj 882 262 soundfiler;
#X obj 480 921 hip~ 15;
#X obj 752 400 vsl 19 162 100 1000 0 0 empty empty DELAY\\\ LENGTH
0 -9 0 12 #fcfcfc #000000 #000000 0 1;
#X obj 702 727 *~ 0.8;
#X obj 693 656 line~;
#X obj 614 491 vsl 19 162 0 1 0 0 empty empty DELAY\\\ SEND 0 -9 0
12 #fcfcfc #000000 #000000 0 1;
#X obj 524 729 *~;
#X obj 869 442 vsl 19 162 0.4 1.1 0 0 empty empty DELAY\\\ FEEDBACK
0 -9 0 12 #fcfcfc #000000 #000000 0 1;
#X obj 703 765 lop~ 2000;
#X msg 693 618 \$1 50;
#X obj 671 834 clip~ -1 1;
#X msg 882 238 read -resize beeps.wav beep01;
#X obj 386 592 tabread4~ beep01;
#X obj 235 631 tabread4~ beep01;
#X obj 882 345 s sampleCountBeep;
#X obj 154 276 r sampleCountBeep;
#X obj 466 453 r sampleCountBeep;
#X obj 700 701 vd~ delayBeep;
#X obj 614 898 delwrite~ delayBeep 1000;
#X obj 478 704 *~ 1;
#X obj 404 643 hip~ 400;
#X obj 443 565 /;
#X obj 507 488 osc~ 200;
#X obj 484 555 snapshot~;
#X obj 493 968 outlet~;
#X obj 480 881 *~ 1;
#X obj 491 328 float;
#X obj 624 160 vsl 19 162 0 1 0 0 empty empty empty 0 -9 0 12 #fcfcfc
#000000 #000000 0 1;
#X obj 491 260 tgl 19 0 empty empty empty 0 -10 0 12 #fcfcfc #000000
#000000 0 1;
#X obj 491 293 metro 300;
#X obj 590 159 vsl 19 162 500 2 0 0 empty empty empty 0 -9 0 12 #fcfcfc
#000000 #000000 0 1;
#X obj 749 99 loadbang;
#X msg 569 689 1;
#X msg 765 588 0.4;
#X msg 859 693 0.3;
#X connect 0 0 20 0;
#X connect 1 0 2 0;
#X connect 1 0 3 1;
#X connect 2 0 3 0;
#X connect 3 0 4 0;
#X connect 4 0 0 0;
#X connect 4 0 5 0;
#X connect 5 0 21 0;
#X connect 6 0 5 1;
#X connect 8 0 22 0;
#X connect 9 0 32 0;
#X connect 11 0 16 0;
#X connect 12 0 25 0;
#X connect 14 0 26 0;
#X connect 16 0 18 0;
#X connect 16 0 33 0;
#X connect 17 0 12 0;
#X connect 18 0 26 0;
#X connect 19 0 8 0;
#X connect 20 0 28 0;
#X connect 23 0 1 0;
#X connect 24 0 6 0;
#X connect 24 0 29 0;
#X connect 25 0 11 0;
#X connect 27 0 14 0;
#X connect 27 0 33 0;
#X connect 28 0 27 0;
#X connect 29 0 0 1;
#X connect 30 0 31 0;
#X connect 31 0 29 1;
#X connect 33 0 9 0;
#X connect 35 0 34 1;
#X connect 36 0 37 0;
#X connect 37 0 34 0;
#X connect 38 0 37 1;
#X connect 39 0 19 0;
#X connect 39 0 41 0;
#X connect 39 0 40 0;
#X connect 39 0 42 0;
#X connect 40 0 14 1;
#X connect 41 0 17 0;
#X connect 42 0 11 1;
#X restore 1084 642 pd sample;
#N canvas 395 0 1285 1022 dolphin 0;
#X obj 637 972 dac~ 1 2;
#X obj 105 14 inlet;
#X obj 149 50 / 2;
#X obj 738 962 outlet~;
#X floatatom 164 143 5 0 0 0 - - - 0;
#X obj 737 911 hip~ 15;
#X obj 767 725 line~;
#X obj 777 634 delay 100;
#X obj 723 569 bng 50 50 25 0 empty empty empty 0 -10 0 12 #fcfcfc
#000000 #000000;
#X obj 719 520 mtof;
#X obj 723 649 float;
#X obj 818 665 float;
#X obj 804 416 vsl 19 162 2 1000 0 0 empty empty ATTACK 0 -9 0 12 #fcfcfc
#000000 #000000 0 1;
#X obj 872 465 vsl 19 162 50 2000 0 0 empty empty RELEASE 0 -9 0 12
#fcfcfc #000000 #000000 0 1;
#X obj 710 808 osc~;
#X obj 430 554 osc~;
#X obj 666 783 +~;
#X obj 572 434 line~;
#X obj 528 278 bng 50 50 25 0 empty empty empty 0 -10 0 12 #fcfcfc
#000000 #000000;
#X obj 528 358 float;
#X obj 623 374 float;
#X obj 588 170 vsl 19 162 2 1000 0 0 empty empty ATTACK 0 -9 0 12 #fcfcfc
#000000 #000000 0 1;
#X obj 646 170 vsl 19 162 50 2000 0 0 empty empty RELEASE 0 -9 0 12
#fcfcfc #000000 #000000 0 1;
#X obj 476 389 mtof;
#X obj 236 331 osc~;
#X obj 300 329 line~;
#X obj 252 124 bng 50 50 25 0 empty empty empty 0 -10 0 12 #fcfcfc
#000000 #000000;
#X obj 259 224 float;
#X obj 324 244 float;
#X msg 261 258 1 \$1;
#X obj 326 46 vsl 19 162 2 1000 0 0 empty empty ATTACK 0 -9 0 12 #fcfcfc
#000000 #000000 0 1;
#X obj 377 34 vsl 19 162 100 500 0 0 empty empty RELEASE 0 -9 0 12
#fcfcfc #000000 #000000 0 1;
#X msg 324 271 0 \$1;
#X obj 267 368 *~;
#X obj 200 255 mtof;
#X obj 394 503 +~;
#X obj 323 219 delay 100;
#X obj 582 343 delay 100;
#X obj 201 289 * 2;
#X obj 481 430 * 1;
#X obj 149 98 + 100;
#X obj 149 74 * 400;
#X obj 340 437 *~ 1000;
#X obj 571 698 *~ 1000;
#X obj 484 617 *~;
#X obj 735 848 *~;
#X msg 810 692 0 1000;
#X msg 725 683 1 90;
#X msg 530 392 1 \$1;
#X msg 623 401 0 \$1;
#X obj 738 883 *~ 0.1;
#X msg 116 146 1;
#X connect 1 0 51 0;
#X connect 1 0 2 0;
#X connect 2 0 41 0;
#X connect 5 0 3 0;
#X connect 6 0 45 1;
#X connect 7 0 11 0;
#X connect 8 0 7 0;
#X connect 8 0 10 0;
#X connect 9 0 8 0;
#X connect 9 0 16 1;
#X connect 10 0 47 0;
#X connect 11 0 46 0;
#X connect 12 0 10 1;
#X connect 12 0 7 1;
#X connect 13 0 11 1;
#X connect 14 0 45 0;
#X connect 15 0 44 0;
#X connect 16 0 14 0;
#X connect 17 0 44 1;
#X connect 18 0 19 0;
#X connect 18 0 37 0;
#X connect 19 0 48 0;
#X connect 20 0 49 0;
#X connect 21 0 19 1;
#X connect 21 0 37 1;
#X connect 22 0 20 1;
#X connect 23 0 18 0;
#X connect 23 0 39 0;
#X connect 24 0 33 0;
#X connect 25 0 33 1;
#X connect 26 0 27 0;
#X connect 26 0 36 0;
#X connect 27 0 29 0;
#X connect 28 0 32 0;
#X connect 29 0 25 0;
#X connect 30 0 27 1;
#X connect 30 0 36 1;
#X connect 31 0 28 1;
#X connect 32 0 25 0;
#X connect 33 0 42 0;
#X connect 34 0 26 0;
#X connect 34 0 38 0;
#X connect 35 0 15 0;
#X connect 36 0 28 0;
#X connect 37 0 20 0;
#X connect 38 0 24 0;
#X connect 39 0 35 1;
#X connect 40 0 4 0;
#X connect 40 0 31 0;
#X connect 40 0 22 0;
#X connect 40 0 30 0;
#X connect 41 0 40 0;
#X connect 42 0 35 0;
#X connect 43 0 16 0;
#X connect 44 0 43 0;
#X connect 45 0 50 0;
#X connect 46 0 6 0;
#X connect 47 0 6 0;
#X connect 48 0 17 0;
#X connect 49 0 17 0;
#X connect 50 0 5 0;
#X connect 51 0 34 0;
#X connect 51 0 23 0;
#X connect 51 0 9 0;
#X restore 1080 588 pd dolphin;
#X obj 506 573 *~ 6;
#X obj 1066 516 moses 1;
#X obj 165 540 moses 1;
#X obj 868 308 s drum5;
#X msg 628 463 1 0 \, 0.1 500;
#X obj 282 271 r button;
#X obj 282 295 print;
#X connect 0 0 29 0;
#X connect 1 0 2 0;
#X connect 3 0 4 0;
#X connect 3 0 4 1;
#X connect 6 0 7 0;
#X connect 7 0 13 0;
#X connect 7 1 18 0;
#X connect 7 2 19 0;
#X connect 7 3 36 0;
#X connect 7 4 61 0;
#X connect 7 5 37 0;
#X connect 7 6 8 0;
#X connect 7 7 9 0;
#X connect 11 0 22 0;
#X connect 15 0 28 0;
#X connect 16 0 28 0;
#X connect 20 0 60 0;
#X connect 21 0 23 0;
#X connect 22 0 5 0;
#X connect 22 0 55 0;
#X connect 23 0 16 0;
#X connect 23 0 17 0;
#X connect 24 0 25 0;
#X connect 25 0 26 0;
#X connect 26 0 27 0;
#X connect 27 0 58 0;
#X connect 28 0 3 0;
#X connect 29 0 1 0;
#X connect 30 0 31 0;
#X connect 31 0 32 0;
#X connect 31 0 28 0;
#X connect 33 0 30 0;
#X connect 34 0 32 0;
#X connect 34 0 28 0;
#X connect 35 0 34 1;
#X connect 38 0 59 0;
#X connect 40 0 7 0;
#X connect 41 0 49 0;
#X connect 42 0 49 1;
#X connect 43 0 49 2;
#X connect 44 0 49 3;
#X connect 45 0 49 4;
#X connect 46 0 49 5;
#X connect 47 0 49 6;
#X connect 48 0 49 7;
#X connect 49 0 7 0;
#X connect 50 0 51 0;
#X connect 51 0 41 0;
#X connect 51 0 42 0;
#X connect 51 0 43 0;
#X connect 51 0 44 0;
#X connect 51 0 45 0;
#X connect 51 0 46 0;
#X connect 51 0 47 0;
#X connect 51 0 48 0;
#X connect 53 0 52 0;
#X connect 53 0 62 0;
#X connect 54 0 53 0;
#X connect 55 0 28 0;
#X connect 58 0 34 0;
#X connect 59 1 57 0;
#X connect 59 1 39 0;
#X connect 60 1 15 0;
#X connect 60 1 14 0;
#X connect 62 0 35 0;
#X connect 63 0 64 0;
