#N canvas 159 81 1509 1022 12;
#X obj 40 26 loadbang;
#X msg 42 197 1;
#X obj 43 225 s triggerAutomaton;
#X obj 402 898 hip~ 15;
#X obj 402 948 dac~ 1 2;
#X obj 37 600 bng 15 250 50 0 empty empty empty 17 7 0 10 #fcfcfc #000000
#000000;
#X obj 913 183 r automatonRow;
#X obj 1025 239 unpack 0 0 0 0 0 0 0 0;
#X obj 1282 300 s drum7;
#X obj 1344 300 s drum8;
#X text 270 24 vary the metro based on automaton;
#X obj 63 522 r base;
#X obj 908 300 s base;
#X obj 167 591 bng 15 250 50 0 empty empty empty 17 7 0 10 #fcfcfc
#000000 #000000;
#N canvas 613 35 1067 958 drum1 0;
#X obj 242 20 inlet;
#X obj 204 174 line~;
#X obj 204 198 osc~;
#X obj 238 259 *~;
#X obj 428 76 bng 40 250 50 0 empty empty empty 17 7 0 10 #fcfcfc #000000
#000000;
#X obj 377 246 line~;
#X obj 168 475 outlet~;
#X obj 231 288 *~;
#X obj 585 159 vsl 15 128 0 1 0 0 empty empty empty 0 -9 0 10 #fcfcfc
#000000 #000000 0 1;
#X msg 576 105 1;
#X obj 586 69 loadbang;
#X obj 96 534 dac~;
#X obj 204 563 drum_reverb;
#X obj 396 563 drum_reverb;
#X obj 587 569 drum_reverb;
#X obj 191 340 s~ drum-reverb-1;
#X obj 180 379 catch~ drum-mix-1;
#X obj 204 524 r~ drum-reverb-1;
#X obj 396 524 r~ drum-reverb-1;
#X obj 587 530 r~ drum-reverb-1;
#X obj 204 587 throw~ drum-mix-1;
#X obj 396 587 throw~ drum-mix-1;
#X obj 587 593 throw~ drum-mix-1;
#X msg 377 222 1 0 \, 0 1000;
#X obj 316 394 unpack 0 0 0 0 0;
#X obj 724 573 drum_reverb;
#X obj 724 534 r~ drum-reverb-1;
#X obj 724 597 throw~ drum-mix-1;
#X obj 892 573 drum_reverb;
#X obj 892 534 r~ drum-reverb-1;
#X obj 892 597 throw~ drum-mix-1;
#X obj 168 441 *~ 0.25;
#X obj 349 320 loadbang;
#X obj 230 58 sel 1 2;
#X obj 265 109 bng 15 250 50 0 empty empty empty 17 7 0 10 #fcfcfc
#000000 #000000;
#X obj 302 109 bng 15 250 50 0 empty empty empty 17 7 0 10 #fcfcfc
#000000 #000000;
#X msg 204 150 \$1 0 \, 100 110;
#X msg 134 102 500;
#X msg 323 358 45 30 20 25 37;
#X msg 480 368 22 29 37 45 32;
#X msg 194 101 600;
#X connect 0 0 33 0;
#X connect 0 0 4 0;
#X connect 1 0 2 0;
#X connect 2 0 3 0;
#X connect 3 0 7 0;
#X connect 3 0 31 0;
#X connect 4 0 23 0;
#X connect 5 0 3 1;
#X connect 7 0 15 0;
#X connect 8 0 7 1;
#X connect 9 0 8 0;
#X connect 10 0 9 0;
#X connect 12 0 20 0;
#X connect 13 0 21 0;
#X connect 14 0 22 0;
#X connect 16 0 31 0;
#X connect 17 0 12 0;
#X connect 18 0 13 0;
#X connect 19 0 14 0;
#X connect 23 0 5 0;
#X connect 24 0 12 1;
#X connect 24 1 13 1;
#X connect 24 2 14 1;
#X connect 24 3 25 1;
#X connect 24 4 28 1;
#X connect 25 0 27 0;
#X connect 26 0 25 0;
#X connect 28 0 30 0;
#X connect 29 0 28 0;
#X connect 31 0 6 0;
#X connect 32 0 38 0;
#X connect 33 0 37 0;
#X connect 33 0 34 0;
#X connect 33 1 40 0;
#X connect 33 1 35 0;
#X connect 36 0 1 0;
#X connect 37 0 36 0;
#X connect 38 0 24 0;
#X connect 39 0 24 0;
#X connect 40 0 36 0;
#X restore 256 675 pd drum1;
#N canvas 793 64 832 887 drum2 0;
#X obj 242 20 inlet;
#X obj 215 304 line~;
#X obj 215 328 osc~;
#X obj 249 389 *~;
#X obj 389 278 bng 40 250 50 0 empty empty empty 17 7 0 10 #fcfcfc
#000000 #000000;
#X obj 388 376 line~;
#X obj 247 452 outlet~;
#X msg 388 352 0.5 0 \, 0 100;
#X msg 55 94 900;
#X obj 55 168 +;
#X obj 165 62 sel 1 2;
#X msg 131 119 100;
#X msg 215 280 1000 0 \, 60 20;
#X obj 249 413 *~ 0.5;
#X msg 178 119 400;
#X connect 0 0 4 0;
#X connect 0 0 10 0;
#X connect 1 0 2 0;
#X connect 2 0 3 0;
#X connect 3 0 13 0;
#X connect 4 0 7 0;
#X connect 5 0 3 1;
#X connect 7 0 5 0;
#X connect 8 0 9 0;
#X connect 9 0 12 0;
#X connect 10 0 11 0;
#X connect 10 1 14 0;
#X connect 11 0 9 1;
#X connect 12 0 1 0;
#X connect 13 0 6 0;
#X connect 14 0 9 1;
#X restore 353 675 pd drum2;
#X obj 322 603 bng 15 250 50 0 empty empty empty 17 7 0 10 #fcfcfc
#000000 #000000;
#X obj 971 300 s drum1;
#X obj 1033 300 s drum2;
#X obj 214 504 r drum1;
#X obj 351 490 r drum2;
#X obj 402 874 *~ 0.075;
#X obj 1095 300 s drum3;
#X obj 1220 300 s drum4;
#X msg 1315 192 1 0 1 1 1 0 1 2;
#X obj 693 90 random 3;
#X obj 761 90 random 3;
#X obj 830 90 random 3;
#X obj 898 90 random 3;
#X obj 968 90 random 3;
#X obj 1036 90 random 3;
#X obj 1105 90 random 3;
#X obj 1173 90 random 3;
#X obj 861 148 pack 0 0 0 0 0 0 0 0;
#X obj 885 15 tgl 15 0 empty empty empty 17 7 0 10 #fcfcfc #000000
#000000 0 1;
#X obj 1036 739 sel 1;
#X obj 448 501 r drum3;
#N canvas 508 28 1172 958 drum0 0;
#X obj 242 20 inlet;
#X obj 204 174 line~;
#X obj 204 198 osc~;
#X obj 378 148 bng 40 250 50 0 empty empty empty 17 7 0 10 #fcfcfc
#000000 #000000;
#X obj 377 246 line~;
#X obj 180 690 outlet~;
#X obj 252 304 *~;
#X obj 585 166 vsl 15 128 0 1 0 0 empty empty empty 0 -9 0 10 #fcfcfc
#000000 #000000 0 1;
#X msg 576 105 1;
#X obj 586 69 loadbang;
#X obj 107 694 dac~;
#X obj 386 641 drum_reverb;
#X obj 578 641 drum_reverb;
#X obj 769 647 drum_reverb;
#X msg 377 222 1 0 \, 0 2000;
#X obj 238 259 *~ 1;
#X obj 191 340 s~ drum-reverb-0;
#X obj 206 392 catch~ drum-mix-0;
#X obj 386 602 r~ drum-reverb-0;
#X obj 578 602 r~ drum-reverb-0;
#X obj 769 608 r~ drum-reverb-0;
#X obj 769 671 throw~ drum-mix-0;
#X obj 578 665 throw~ drum-mix-0;
#X obj 386 665 throw~ drum-mix-0;
#X obj 610 347 loadbang;
#X obj 85 567 *~ 0.75;
#X obj 952 646 drum_reverb;
#X obj 952 607 r~ drum-reverb-0;
#X obj 952 670 throw~ drum-mix-0;
#X obj 585 477 unpack 0 0 0 0;
#X msg 585 453 40 20 30 50;
#X msg 204 150 \$1 0 \, 10 180;
#X obj 135 62 sel 1 2;
#X msg 107 107 80;
#X msg 153 104 80;
#X connect 0 0 3 0;
#X connect 0 0 32 0;
#X connect 1 0 2 0;
#X connect 2 0 15 0;
#X connect 3 0 14 0;
#X connect 6 0 16 0;
#X connect 7 0 6 1;
#X connect 8 0 7 0;
#X connect 9 0 8 0;
#X connect 11 0 23 0;
#X connect 12 0 22 0;
#X connect 13 0 21 0;
#X connect 14 0 4 0;
#X connect 15 0 6 0;
#X connect 15 0 25 0;
#X connect 17 0 25 0;
#X connect 18 0 11 0;
#X connect 19 0 12 0;
#X connect 20 0 13 0;
#X connect 24 0 30 0;
#X connect 25 0 5 0;
#X connect 26 0 28 0;
#X connect 27 0 26 0;
#X connect 29 0 11 1;
#X connect 29 1 12 1;
#X connect 29 2 13 1;
#X connect 29 3 26 1;
#X connect 30 0 29 0;
#X connect 31 0 1 0;
#X connect 32 0 33 0;
#X connect 32 1 34 0;
#X connect 33 0 31 0;
#X connect 34 0 31 0;
#X restore 178 675 pd drum0;
#X obj 165 540 moses 1;
#X obj 282 271 r button;
#X obj 286 411 print;
#X obj 41 169 metro 100;
#X obj 351 514 moses 1;
#X obj 887 45 metro 100;
#N canvas 189 41 1352 929 drum4 0;
#N canvas 518 119 831 849 qenv 0;
#X obj 212 343 outlet~;
#X obj 311 318 *~;
#X obj 196 48 inlet;
#X text 506 294 quartic envelope;
#X obj 211 262 *~;
#X text 276 281 power of 4;
#X text 380 115 0.4 immediately \, then 1 ms delay and goes to 0;
#X text 482 138 could be vline;
#X obj 157 159 vline~;
#X msg 163 103 0.5 0 \, 0 200 1;
#X connect 1 0 0 0;
#X connect 2 0 9 0;
#X connect 4 0 1 0;
#X connect 4 0 1 1;
#X connect 8 0 4 0;
#X connect 8 0 4 1;
#X connect 9 0 8 0;
#X restore 159 447 pd qenv;
#X obj 31 446 noise~;
#X obj 236 411 osc~;
#X obj 305 410 osc~;
#X obj 123 518 *~;
#X msg 419 346 0;
#N canvas 809 41 831 849 qenv 0;
#X obj 212 343 outlet~;
#X obj 206 306 *~;
#X obj 196 48 inlet;
#X text 506 294 quartic envelope;
#X obj 211 262 *~;
#X text 276 281 power of 4;
#X text 380 115 0.4 immediately \, then 1 ms delay and goes to 0;
#X text 482 138 could be vline;
#X obj 33 147 vline~;
#X msg 39 91 0.4 0 \, 0 200 1;
#X connect 1 0 0 0;
#X connect 2 0 9 0;
#X connect 4 0 1 0;
#X connect 4 0 1 1;
#X connect 8 0 4 0;
#X connect 8 0 4 1;
#X connect 9 0 8 0;
#X restore 210 266 pd qenv;
#X obj 279 604 outlet~;
#X obj 401 62 inlet;
#X obj 235 371 +~ 1200;
#X obj 302 372 +~ 600;
#X obj 255 481 *~;
#X obj 234 335 *~ 100;
#X obj 301 336 *~ 100;
#X obj 271 543 *~ 0.25;
#X obj 28 213 sel 1 2;
#X msg 124 247 1000;
#X obj 73 294 *;
#X obj 50 478 hip~;
#X connect 0 0 4 1;
#X connect 1 0 18 0;
#X connect 2 0 11 0;
#X connect 3 0 11 0;
#X connect 4 0 14 0;
#X connect 5 0 2 1;
#X connect 5 0 3 1;
#X connect 6 0 11 1;
#X connect 6 0 12 0;
#X connect 6 0 13 0;
#X connect 8 0 6 0;
#X connect 8 0 5 0;
#X connect 8 0 0 0;
#X connect 8 0 15 0;
#X connect 9 0 2 0;
#X connect 10 0 3 0;
#X connect 11 0 14 0;
#X connect 12 0 9 0;
#X connect 13 0 10 0;
#X connect 14 0 7 0;
#X connect 15 0 17 0;
#X connect 15 1 17 0;
#X connect 16 0 17 1;
#X connect 17 0 18 1;
#X connect 18 0 4 0;
#X restore 529 672 pd drum4;
#X obj 596 482 r drum4;
#X obj 596 506 moses 1;
#X obj 712 561 bng 15 250 50 0 empty empty empty 17 7 0 10 #fcfcfc
#000000 #000000;
#X obj 759 474 r drum7;
#N canvas 504 64 1067 958 drum7 0;
#X obj 242 20 inlet;
#X obj 204 174 line~;
#X obj 204 198 osc~;
#X obj 238 259 *~;
#X obj 428 76 bng 40 250 50 0 empty empty empty 17 7 0 10 #fcfcfc #000000
#000000;
#X obj 377 246 line~;
#X obj 168 475 outlet~;
#X obj 231 288 *~;
#X obj 585 159 vsl 15 128 0 1 0 0 empty empty empty 0 -9 0 10 #fcfcfc
#000000 #000000 0 1;
#X msg 576 105 1;
#X obj 586 69 loadbang;
#X obj 96 534 dac~;
#X obj 204 563 drum_reverb;
#X obj 396 563 drum_reverb;
#X obj 587 569 drum_reverb;
#X msg 377 222 1 0 \, 0 1000;
#X obj 316 394 unpack 0 0 0 0 0;
#X obj 724 573 drum_reverb;
#X obj 892 573 drum_reverb;
#X obj 168 441 *~ 0.25;
#X obj 349 320 loadbang;
#X obj 265 109 bng 15 250 50 0 empty empty empty 17 7 0 10 #fcfcfc
#000000 #000000;
#X obj 302 109 bng 15 250 50 0 empty empty empty 17 7 0 10 #fcfcfc
#000000 #000000;
#X msg 204 150 \$1 0 \, 100 110;
#X msg 323 358 45 30 20 25 37;
#X msg 480 368 22 29 37 45 32;
#X obj 180 379 catch~ drum-mix-7;
#X obj 191 340 s~ drum-reverb-7;
#X obj 204 524 r~ drum-reverb-7;
#X obj 396 524 r~ drum-reverb-7;
#X obj 587 530 r~ drum-reverb-7;
#X obj 724 534 r~ drum-reverb-7;
#X obj 892 534 r~ drum-reverb-7;
#X obj 892 597 throw~ drum-mix-7;
#X obj 724 597 throw~ drum-mix-7;
#X obj 587 593 throw~ drum-mix-7;
#X obj 396 587 throw~ drum-mix-7;
#X obj 204 587 throw~ drum-mix-7;
#X msg 134 102 200;
#X msg 194 101 300;
#X obj 230 58 sel 0 1 2;
#X msg 55 101 100;
#X connect 0 0 4 0;
#X connect 0 0 40 0;
#X connect 1 0 2 0;
#X connect 2 0 3 0;
#X connect 3 0 7 0;
#X connect 3 0 19 0;
#X connect 4 0 15 0;
#X connect 5 0 3 1;
#X connect 7 0 27 0;
#X connect 8 0 7 1;
#X connect 9 0 8 0;
#X connect 10 0 9 0;
#X connect 12 0 37 0;
#X connect 13 0 36 0;
#X connect 14 0 35 0;
#X connect 15 0 5 0;
#X connect 16 0 12 1;
#X connect 16 1 13 1;
#X connect 16 2 14 1;
#X connect 16 3 17 1;
#X connect 16 4 18 1;
#X connect 17 0 34 0;
#X connect 18 0 33 0;
#X connect 19 0 6 0;
#X connect 20 0 24 0;
#X connect 23 0 1 0;
#X connect 24 0 16 0;
#X connect 25 0 16 0;
#X connect 26 0 19 0;
#X connect 28 0 12 0;
#X connect 29 0 13 0;
#X connect 30 0 14 0;
#X connect 31 0 17 0;
#X connect 32 0 18 0;
#X connect 38 0 23 0;
#X connect 39 0 23 0;
#X connect 40 0 21 0;
#X connect 40 0 41 0;
#X connect 40 1 22 0;
#X connect 40 1 38 0;
#X connect 40 2 39 0;
#X restore 609 674 pd drum7;
#X obj 710 510 moses 0;
#X obj 650 558 bng 15 250 50 0 empty empty empty 17 7 0 10 #fcfcfc
#000000 #000000;
#X obj 951 525 r drum8;
#X obj 1204 410 +;
#X obj 1204 434 +;
#X obj 1204 458 +;
#X obj 1204 482 +;
#X obj 1204 506 +;
#X obj 1204 530 +;
#X obj 1204 554 +;
#N canvas 271 127 1348 811 ambient 1;
#N canvas 687 173 661 598 scales 0;
#X obj 37 37 inlet;
#X obj 61 453 outlet;
#X obj 46 84 bng 15 250 50 0 empty empty empty 17 7 0 10 #fcfcfc #000000
#000000;
#X obj 46 104 random 3;
#X floatatom 46 128 5 0 0 0 - - - 0;
#X obj 27 186 sel 0;
#X obj 85 185 sel 1;
#X obj 141 180 sel 2;
#X floatatom 64 260 5 0 0 0 - - - 0;
#X obj 64 283 mtof;
#X floatatom 64 307 5 0 0 0 - - - 0;
#X msg 85 216 6;
#X msg 27 210 10;
#X msg 141 204 40;
#X connect 0 0 2 0;
#X connect 2 0 3 0;
#X connect 3 0 4 0;
#X connect 4 0 5 0;
#X connect 4 0 6 0;
#X connect 4 0 7 0;
#X connect 5 0 12 0;
#X connect 6 0 11 0;
#X connect 7 0 13 0;
#X connect 8 0 9 0;
#X connect 9 0 10 0;
#X connect 10 0 1 0;
#X connect 11 0 8 0;
#X connect 12 0 8 0;
#X connect 13 0 8 0;
#X restore 218 133 pd scales;
#X floatatom 144 160 5 0 0 0 - - - 0;
#X obj 148 259 phasor~;
#X obj 143 49 inlet;
#X obj 122 593 outlet~;
#X obj 129 449 s~ ambient-reverb;
#X obj 121 501 catch~ ambient-mix;
#X obj 547 399 drum_reverb;
#X obj 739 399 drum_reverb;
#X obj 930 405 drum_reverb;
#X obj 771 105 loadbang;
#X obj 1113 404 drum_reverb;
#X obj 746 235 unpack 0 0 0 0;
#X obj 547 360 r~ ambient-reverb;
#X obj 739 360 r~ ambient-reverb;
#X obj 930 366 r~ ambient-reverb;
#X obj 1113 365 r~ ambient-reverb;
#X obj 547 423 throw~ ambient-mix;
#X obj 739 423 throw~ ambient-mix;
#X obj 930 429 throw~ ambient-mix;
#X obj 1113 428 throw~ ambient-mix;
#X msg 746 211 319 230 122 143;
#X obj 375 238 line;
#X msg 315 188 1 0;
#X obj 338 117 bng 15 250 50 0 empty empty empty 17 7 0 10 #fcfcfc
#000000 #000000;
#X obj 380 158 delay 500;
#X obj 148 371 *~;
#X msg 459 197 0 1000;
#X floatatom 42 157 5 0 0 0 - - - 0;
#X obj 46 255 phasor~;
#N canvas 687 173 661 598 scales_norandom 0;
#X obj 37 37 inlet;
#X obj 61 453 outlet;
#X floatatom 46 128 5 0 0 0 - - - 0;
#X obj 27 186 sel 0;
#X obj 85 185 sel 1;
#X obj 141 180 sel 2;
#X floatatom 64 260 5 0 0 0 - - - 0;
#X obj 64 283 mtof;
#X floatatom 64 307 5 0 0 0 - - - 0;
#X msg 141 204 40;
#X msg 27 210 20;
#X msg 85 216 30;
#X connect 0 0 2 0;
#X connect 2 0 3 0;
#X connect 2 0 4 0;
#X connect 2 0 5 0;
#X connect 3 0 10 0;
#X connect 4 0 11 0;
#X connect 5 0 9 0;
#X connect 6 0 7 0;
#X connect 7 0 8 0;
#X connect 8 0 1 0;
#X connect 9 0 6 0;
#X connect 10 0 6 0;
#X connect 11 0 6 0;
#X restore 41 122 pd scales_norandom;
#X obj 147 316 lop~ 100;
#X obj 121 525 *~ 2;
#X connect 0 0 1 0;
#X connect 1 0 2 0;
#X connect 2 0 31 0;
#X connect 3 0 24 0;
#X connect 3 0 30 0;
#X connect 3 0 0 0;
#X connect 6 0 32 0;
#X connect 7 0 17 0;
#X connect 8 0 18 0;
#X connect 9 0 19 0;
#X connect 10 0 21 0;
#X connect 11 0 20 0;
#X connect 12 0 7 1;
#X connect 12 1 8 1;
#X connect 12 2 9 1;
#X connect 12 3 11 1;
#X connect 13 0 7 0;
#X connect 14 0 8 0;
#X connect 15 0 9 0;
#X connect 16 0 11 0;
#X connect 21 0 12 0;
#X connect 22 0 26 1;
#X connect 23 0 22 0;
#X connect 24 0 23 0;
#X connect 24 0 25 0;
#X connect 25 0 27 0;
#X connect 26 0 5 0;
#X connect 27 0 22 0;
#X connect 28 0 29 0;
#X connect 29 0 31 0;
#X connect 30 0 28 0;
#X connect 31 0 26 0;
#X connect 32 0 4 0;
#X restore 949 605 pd ambient;
#X obj 819 549 bng 15 250 50 0 empty empty empty 17 7 0 10 #fcfcfc
#000000 #000000;
#X obj 868 486 r drum8;
#X obj 868 510 moses 2;
#N canvas 761 97 862 834 drum3 0;
#X obj 112 348 noise~;
#X obj 202 548 *~ 0.99;
#X obj 124 574 *~;
#X obj 234 416 line~;
#X obj 324 351 bng 15 250 50 0 empty empty empty 17 7 0 10 #fcfcfc
#000000 #000000;
#X obj 204 623 delwrite~ noise-delay 1000;
#X obj 203 520 delread~ noise-delay;
#X obj 202 577 lop~ 1000;
#X msg 231 352 1 0 \, 0.1 150;
#X obj 109 462 *~ 6;
#X obj 111 381 lop~ 300;
#X obj 111 405 lop~ 300;
#X obj 111 430 lop~ 300;
#X obj 314 218 inlet;
#X obj 105 692 outlet~;
#X connect 0 0 10 0;
#X connect 1 0 7 0;
#X connect 2 0 5 0;
#X connect 2 0 14 0;
#X connect 3 0 2 1;
#X connect 6 0 1 0;
#X connect 7 0 5 0;
#X connect 8 0 3 0;
#X connect 9 0 2 0;
#X connect 10 0 11 0;
#X connect 11 0 12 0;
#X connect 12 0 9 0;
#X connect 13 0 8 0;
#X restore 997 789 pd drum3;
#X obj 73 564 moses 1;
#X floatatom 1204 578 5 0 0 0 - - - 0;
#X obj 1158 300 s base2;
#X obj 768 690 bng 15 250 50 0 empty empty empty 17 7 0 10 #fcfcfc
#000000 #000000;
#N canvas 508 28 1172 958 drum0 0;
#X obj 242 20 inlet;
#X obj 204 174 line~;
#X obj 204 198 osc~;
#X obj 378 148 bng 40 250 50 0 empty empty empty 17 7 0 10 #fcfcfc
#000000 #000000;
#X obj 377 246 line~;
#X obj 180 690 outlet~;
#X obj 252 304 *~;
#X obj 585 166 vsl 15 128 0 1 0 0 empty empty empty 0 -9 0 10 #fcfcfc
#000000 #000000 0 1;
#X msg 576 105 1;
#X obj 586 69 loadbang;
#X obj 107 694 dac~;
#X obj 386 641 drum_reverb;
#X obj 578 641 drum_reverb;
#X obj 769 647 drum_reverb;
#X msg 377 222 1 0 \, 0 2000;
#X obj 238 259 *~ 1;
#X obj 610 347 loadbang;
#X obj 85 567 *~ 0.75;
#X obj 952 646 drum_reverb;
#X obj 585 477 unpack 0 0 0 0;
#X msg 585 453 40 20 30 50;
#X msg 204 150 \$1 0 \, 10 180;
#X obj 135 62 sel 1 2;
#X msg 107 107 80;
#X msg 153 104 80;
#X obj 386 602 r~ drum-reverb-0-\$0;
#X obj 578 602 r~ drum-reverb-0-\$0;
#X obj 769 608 r~ drum-reverb-0-\$0;
#X obj 952 607 r~ drum-reverb-0-\$0;
#X obj 952 670 throw~ drum-mix-0-\$0;
#X obj 769 671 throw~ drum-mix-0-\$0;
#X obj 578 665 throw~ drum-mix-0-\$0;
#X obj 386 665 throw~ drum-mix-0-\$0;
#X obj 191 340 s~ drum-reverb-0-\$0;
#X obj 206 392 catch~ drum-mix-0-\$0;
#X connect 0 0 3 0;
#X connect 0 0 22 0;
#X connect 1 0 2 0;
#X connect 2 0 15 0;
#X connect 3 0 14 0;
#X connect 6 0 33 0;
#X connect 7 0 6 1;
#X connect 8 0 7 0;
#X connect 9 0 8 0;
#X connect 11 0 32 0;
#X connect 12 0 31 0;
#X connect 13 0 30 0;
#X connect 14 0 4 0;
#X connect 15 0 6 0;
#X connect 15 0 17 0;
#X connect 16 0 20 0;
#X connect 17 0 5 0;
#X connect 18 0 29 0;
#X connect 19 0 11 1;
#X connect 19 1 12 1;
#X connect 19 2 13 1;
#X connect 19 3 18 1;
#X connect 20 0 19 0;
#X connect 21 0 1 0;
#X connect 22 0 23 0;
#X connect 22 1 24 0;
#X connect 23 0 21 0;
#X connect 24 0 21 0;
#X connect 25 0 11 0;
#X connect 26 0 12 0;
#X connect 27 0 13 0;
#X connect 28 0 18 0;
#X connect 34 0 17 0;
#X restore 784 761 pd drum0;
#X obj 804 654 moses 1;
#X obj 794 612 r base2;
#X obj 1289 478 f;
#X obj 1324 527 +;
#X obj 1204 601;
#X msg 1204 625;
#X connect 0 0 41 0;
#X connect 1 0 2 0;
#X connect 3 0 4 0;
#X connect 3 0 4 1;
#X connect 6 0 7 0;
#X connect 7 0 12 0;
#X connect 7 0 53 0;
#X connect 7 1 17 0;
#X connect 7 1 53 1;
#X connect 7 2 18 0;
#X connect 7 2 54 1;
#X connect 7 3 22 0;
#X connect 7 3 55 1;
#X connect 7 4 56 1;
#X connect 7 4 67 0;
#X connect 7 5 23 0;
#X connect 7 5 57 1;
#X connect 7 6 8 0;
#X connect 7 6 58 1;
#X connect 7 7 9 0;
#X connect 7 7 59 1;
#X connect 11 0 65 0;
#X connect 14 0 21 0;
#X connect 15 0 21 0;
#X connect 19 0 38 0;
#X connect 20 0 42 0;
#X connect 21 0 3 0;
#X connect 24 0 7 0;
#X connect 25 0 33 0;
#X connect 26 0 33 1;
#X connect 27 0 33 2;
#X connect 28 0 33 3;
#X connect 29 0 33 4;
#X connect 30 0 33 5;
#X connect 31 0 33 6;
#X connect 32 0 33 7;
#X connect 33 0 7 0;
#X connect 34 0 43 0;
#X connect 35 0 64 0;
#X connect 37 0 21 0;
#X connect 38 1 14 0;
#X connect 38 1 13 0;
#X connect 41 0 1 0;
#X connect 42 0 16 0;
#X connect 42 1 15 0;
#X connect 43 0 25 0;
#X connect 43 0 26 0;
#X connect 43 0 27 0;
#X connect 43 0 28 0;
#X connect 43 0 29 0;
#X connect 43 0 30 0;
#X connect 43 0 31 0;
#X connect 43 0 32 0;
#X connect 44 0 21 0;
#X connect 45 0 46 0;
#X connect 46 1 44 0;
#X connect 46 1 51 0;
#X connect 48 0 50 0;
#X connect 49 0 21 0;
#X connect 50 1 49 0;
#X connect 50 1 47 0;
#X connect 52 0 60 0;
#X connect 52 0 72 0;
#X connect 52 0 35 0;
#X connect 53 0 54 0;
#X connect 54 0 55 0;
#X connect 55 0 56 0;
#X connect 56 0 57 0;
#X connect 57 0 58 0;
#X connect 58 0 59 0;
#X connect 59 0 66 0;
#X connect 62 0 63 0;
#X connect 63 1 61 0;
#X connect 64 0 21 0;
#X connect 65 0 5 0;
#X connect 65 1 37 0;
#X connect 66 0 74 0;
#X connect 69 0 21 0;
#X connect 70 0 68 0;
#X connect 70 1 69 0;
#X connect 71 0 70 0;
#X connect 72 0 73 0;
#X connect 74 0 75 0;
