#N canvas 352 0 1328 1022 12;
#X obj 40 26 loadbang;
#X msg 41 118 1;
#X obj 42 146 s triggerAutomaton;
#X obj 402 898 hip~ 15;
#X obj 402 948 dac~ 1 2;
#X obj 37 600 bng 15 250 50 0 empty empty empty 17 7 0 10 #fcfcfc #000000
#000000;
#X obj 623 191 r automatonRow;
#X obj 735 247 unpack 0 0 0 0 0 0 0 0;
#X obj 992 308 s drum7;
#X obj 1054 308 s drum8;
#X text 270 24 vary the metro based on automaton;
#X obj 63 522 r base;
#X obj 618 308 s base;
#X obj 167 591 bng 15 250 50 0 empty empty empty 17 7 0 10 #fcfcfc
#000000 #000000;
#N canvas 613 35 1067 958 drum1 0;
#X obj 242 20 inlet;
#X obj 204 174 line~;
#X obj 204 198 osc~;
#X obj 238 259 *~;
#X obj 428 76 bng 40 250 50 0 empty empty empty 17 7 0 10 #fcfcfc #000000
#000000;
#X obj 377 246 line~;
#X obj 168 475 outlet~;
#X obj 231 288 *~;
#X obj 585 159 vsl 15 128 0 1 0 0 empty empty empty 0 -9 0 10 #fcfcfc
#000000 #000000 0 1;
#X msg 576 105 1;
#X obj 586 69 loadbang;
#X obj 96 534 dac~;
#X obj 204 563 drum_reverb;
#X obj 396 563 drum_reverb;
#X obj 587 569 drum_reverb;
#X obj 191 340 s~ drum-reverb-1;
#X obj 180 379 catch~ drum-mix-1;
#X obj 204 524 r~ drum-reverb-1;
#X obj 396 524 r~ drum-reverb-1;
#X obj 587 530 r~ drum-reverb-1;
#X obj 204 587 throw~ drum-mix-1;
#X obj 396 587 throw~ drum-mix-1;
#X obj 587 593 throw~ drum-mix-1;
#X msg 377 222 1 0 \, 0 1000;
#X obj 316 394 unpack 0 0 0 0 0;
#X obj 724 573 drum_reverb;
#X obj 724 534 r~ drum-reverb-1;
#X obj 724 597 throw~ drum-mix-1;
#X obj 892 573 drum_reverb;
#X obj 892 534 r~ drum-reverb-1;
#X obj 892 597 throw~ drum-mix-1;
#X obj 168 441 *~ 0.25;
#X obj 349 320 loadbang;
#X obj 230 58 sel 1 2;
#X obj 265 109 bng 15 250 50 0 empty empty empty 17 7 0 10 #fcfcfc
#000000 #000000;
#X obj 302 109 bng 15 250 50 0 empty empty empty 17 7 0 10 #fcfcfc
#000000 #000000;
#X msg 204 150 \$1 0 \, 100 110;
#X msg 194 101 600;
#X msg 134 102 500;
#X msg 323 358 45 30 20 25 37;
#X msg 480 368 22 29 37 45 32;
#X connect 0 0 33 0;
#X connect 0 0 4 0;
#X connect 1 0 2 0;
#X connect 2 0 3 0;
#X connect 3 0 7 0;
#X connect 3 0 31 0;
#X connect 4 0 23 0;
#X connect 5 0 3 1;
#X connect 7 0 15 0;
#X connect 8 0 7 1;
#X connect 9 0 8 0;
#X connect 10 0 9 0;
#X connect 12 0 20 0;
#X connect 13 0 21 0;
#X connect 14 0 22 0;
#X connect 16 0 31 0;
#X connect 17 0 12 0;
#X connect 18 0 13 0;
#X connect 19 0 14 0;
#X connect 23 0 5 0;
#X connect 24 0 12 1;
#X connect 24 1 13 1;
#X connect 24 2 14 1;
#X connect 24 3 25 1;
#X connect 24 4 28 1;
#X connect 25 0 27 0;
#X connect 26 0 25 0;
#X connect 28 0 30 0;
#X connect 29 0 28 0;
#X connect 31 0 6 0;
#X connect 32 0 39 0;
#X connect 33 0 38 0;
#X connect 33 0 34 0;
#X connect 33 1 37 0;
#X connect 33 1 35 0;
#X connect 36 0 1 0;
#X connect 37 0 36 0;
#X connect 38 0 36 0;
#X connect 39 0 24 0;
#X connect 40 0 24 0;
#X restore 239 581 pd drum1;
#N canvas 793 64 832 887 drum2 1;
#X obj 242 20 inlet;
#X obj 215 304 line~;
#X obj 215 328 osc~;
#X obj 249 389 *~;
#X obj 389 278 bng 40 250 50 0 empty empty empty 17 7 0 10 #fcfcfc
#000000 #000000;
#X obj 388 376 line~;
#X obj 247 452 outlet~;
#X msg 388 352 0.5 0 \, 0 100;
#X msg 55 94 900;
#X obj 55 168 +;
#X obj 165 62 sel 1 2;
#X msg 131 119 100;
#X msg 215 280 1000 0 \, 60 20;
#X obj 249 413 *~ 0.5;
#X msg 178 119 400;
#X connect 0 0 4 0;
#X connect 0 0 10 0;
#X connect 1 0 2 0;
#X connect 2 0 3 0;
#X connect 3 0 13 0;
#X connect 4 0 7 0;
#X connect 5 0 3 1;
#X connect 7 0 5 0;
#X connect 8 0 9 0;
#X connect 9 0 12 0;
#X connect 10 0 11 0;
#X connect 10 1 14 0;
#X connect 11 0 9 1;
#X connect 12 0 1 0;
#X connect 13 0 6 0;
#X connect 14 0 9 1;
#X restore 376 590 pd drum2;
#X obj 322 603 bng 15 250 50 0 empty empty empty 17 7 0 10 #fcfcfc
#000000 #000000;
#X obj 681 308 s drum1;
#X obj 743 308 s drum2;
#X obj 214 504 r drum1;
#X obj 351 490 r drum2;
#X obj 73 564 sel 1;
#X obj 509 459 noise~;
#X obj 402 874 *~ 0.075;
#X obj 652 741 *~ 0.99;
#X obj 521 685 *~;
#X obj 631 527 line~;
#X obj 805 308 s drum3;
#X obj 930 308 s drum4;
#X msg 1025 200 1 0 1 1 1 0 1 2;
#X obj 693 90 random 3;
#X obj 761 90 random 3;
#X obj 830 90 random 3;
#X obj 898 90 random 3;
#X obj 968 90 random 3;
#X obj 1036 90 random 3;
#X obj 1105 90 random 3;
#X obj 1173 90 random 3;
#X obj 861 148 pack 0 0 0 0 0 0 0 0;
#X obj 885 15 tgl 15 0 empty empty empty 17 7 0 10 #fcfcfc #000000
#000000 0 1;
#X obj 721 462 bng 15 250 50 0 empty empty empty 17 7 0 10 #fcfcfc
#000000 #000000;
#X obj 680 408 sel 1;
#X obj 680 384 r drum3;
#N canvas 508 28 1172 958 drum0 0;
#X obj 242 20 inlet;
#X obj 204 174 line~;
#X obj 204 198 osc~;
#X obj 378 148 bng 40 250 50 0 empty empty empty 17 7 0 10 #fcfcfc
#000000 #000000;
#X obj 377 246 line~;
#X obj 180 690 outlet~;
#X obj 252 304 *~;
#X obj 585 166 vsl 15 128 0 1 0 0 empty empty empty 0 -9 0 10 #fcfcfc
#000000 #000000 0 1;
#X msg 576 105 1;
#X obj 586 69 loadbang;
#X obj 107 694 dac~;
#X obj 386 641 drum_reverb;
#X obj 578 641 drum_reverb;
#X obj 769 647 drum_reverb;
#X obj 585 477 unpack 0 0 0;
#X msg 585 453 40 20 30;
#X msg 377 222 1 0 \, 0 2000;
#X obj 238 259 *~ 1;
#X obj 191 340 s~ drum-reverb-0;
#X obj 206 392 catch~ drum-mix-0;
#X obj 386 602 r~ drum-reverb-0;
#X obj 578 602 r~ drum-reverb-0;
#X obj 769 608 r~ drum-reverb-0;
#X obj 769 671 throw~ drum-mix-0;
#X obj 578 665 throw~ drum-mix-0;
#X obj 386 665 throw~ drum-mix-0;
#X obj 610 347 loadbang;
#X obj 85 567 *~ 0.75;
#X msg 204 150 80 0 \, 10 180;
#X connect 0 0 3 0;
#X connect 1 0 2 0;
#X connect 2 0 17 0;
#X connect 3 0 16 0;
#X connect 3 0 28 0;
#X connect 6 0 18 0;
#X connect 7 0 6 1;
#X connect 8 0 7 0;
#X connect 9 0 8 0;
#X connect 11 0 25 0;
#X connect 12 0 24 0;
#X connect 13 0 23 0;
#X connect 14 0 11 1;
#X connect 14 0 12 1;
#X connect 14 0 13 1;
#X connect 15 0 14 0;
#X connect 16 0 4 0;
#X connect 17 0 6 0;
#X connect 17 0 27 0;
#X connect 19 0 27 0;
#X connect 20 0 11 0;
#X connect 21 0 12 0;
#X connect 22 0 13 0;
#X connect 26 0 15 0;
#X connect 27 0 5 0;
#X connect 28 0 1 0;
#X restore 165 711 pd drum0;
#X obj 165 540 moses 1;
#X msg 628 463 1 0 \, 0.1 500;
#X obj 282 271 r button;
#X obj 286 411 print;
#X obj 40 90 metro 100;
#X obj 868 308 s base;
#X obj 887 45 metro 100;
#X obj 654 816 delwrite~ noise-delay 1000;
#X obj 653 713 delread~ noise-delay;
#X obj 506 573 *~ 3;
#X obj 508 492 lop~ 400;
#X obj 508 516 lop~ 400;
#X obj 506 549 lop~ 400;
#X obj 652 770 lop~ 500;
#X obj 351 514 moses 1;
#X connect 0 0 48 0;
#X connect 1 0 2 0;
#X connect 3 0 4 0;
#X connect 3 0 4 1;
#X connect 6 0 7 0;
#X connect 7 0 12 0;
#X connect 7 1 17 0;
#X connect 7 2 18 0;
#X connect 7 3 27 0;
#X connect 7 4 49 0;
#X connect 7 5 28 0;
#X connect 7 6 8 0;
#X connect 7 7 9 0;
#X connect 11 0 21 0;
#X connect 14 0 23 0;
#X connect 15 0 23 0;
#X connect 19 0 44 0;
#X connect 20 0 58 0;
#X connect 21 0 5 0;
#X connect 21 0 43 0;
#X connect 22 0 54 0;
#X connect 23 0 3 0;
#X connect 24 0 57 0;
#X connect 25 0 23 0;
#X connect 25 0 51 0;
#X connect 26 0 25 1;
#X connect 29 0 7 0;
#X connect 30 0 38 0;
#X connect 31 0 38 1;
#X connect 32 0 38 2;
#X connect 33 0 38 3;
#X connect 34 0 38 4;
#X connect 35 0 38 5;
#X connect 36 0 38 6;
#X connect 37 0 38 7;
#X connect 38 0 7 0;
#X connect 39 0 50 0;
#X connect 41 0 40 0;
#X connect 41 0 45 0;
#X connect 42 0 41 0;
#X connect 43 0 23 0;
#X connect 44 1 14 0;
#X connect 44 1 13 0;
#X connect 45 0 26 0;
#X connect 48 0 1 0;
#X connect 50 0 30 0;
#X connect 50 0 31 0;
#X connect 50 0 32 0;
#X connect 50 0 33 0;
#X connect 50 0 34 0;
#X connect 50 0 35 0;
#X connect 50 0 36 0;
#X connect 50 0 37 0;
#X connect 52 0 24 0;
#X connect 53 0 25 0;
#X connect 54 0 55 0;
#X connect 55 0 56 0;
#X connect 56 0 53 0;
#X connect 57 0 23 0;
#X connect 57 0 51 0;
#X connect 58 1 15 0;
