#N canvas 255 18 1401 894 12;
#X obj 177 16 tgl 15 0 empty empty empty 17 7 0 10 #fcfcfc #000000
#000000 0 1;
#N canvas 1230 237 450 528 scales 0;
#X obj 37 37 inlet;
#X obj 46 338 outlet;
#X obj 46 84 bng 15 250 50 0 empty empty empty 17 7 0 10 #fcfcfc #000000
#000000;
#X obj 46 104 random 3;
#X floatatom 46 128 5 0 0 0 - - - 0;
#X obj 27 186 sel 0;
#X obj 85 185 sel 1;
#X obj 141 180 sel 2;
#X msg 27 210 64;
#X msg 85 216 69;
#X msg 141 204 74;
#X floatatom 64 260 5 0 0 0 - - - 0;
#X obj 64 283 mtof;
#X floatatom 64 307 5 0 0 0 - - - 0;
#X connect 0 0 2 0;
#X connect 2 0 3 0;
#X connect 3 0 4 0;
#X connect 4 0 5 0;
#X connect 4 0 6 0;
#X connect 4 0 7 0;
#X connect 5 0 8 0;
#X connect 6 0 9 0;
#X connect 7 0 10 0;
#X connect 8 0 11 0;
#X connect 9 0 11 0;
#X connect 10 0 11 0;
#X connect 11 0 12 0;
#X connect 12 0 13 0;
#X connect 13 0 1 0;
#X restore 179 123 pd scales;
#X floatatom 180 158 5 0 0 0 - - - 0;
#X obj 120 209 / 2;
#X floatatom 120 233 5 0 0 0 - - - 0;
#X obj 120 256 phasor~;
#X obj 184 256 phasor~;
#X obj 264 206 * 1.005;
#X floatatom 264 230 5 0 0 0 - - - 0;
#X obj 264 253 phasor~;
#X obj 183 569 dac~ 1 2;
#X msg 454 91 4300;
#X obj 424 260 line;
#X msg 378 200 1 200;
#X obj 374 131 delay;
#X msg 470 201 0 500;
#X obj 184 369 *~ 0.5;
#X obj 183 314 lop~ 100;
#N canvas 803 205 450 528 scales 0;
#X obj 37 37 inlet;
#X obj 61 453 outlet;
#X obj 46 84 bng 15 250 50 0 empty empty empty 17 7 0 10 #fcfcfc #000000
#000000;
#X obj 46 104 random 3;
#X floatatom 46 128 5 0 0 0 - - - 0;
#X obj 27 186 sel 0;
#X obj 85 185 sel 1;
#X obj 141 180 sel 2;
#X floatatom 64 260 5 0 0 0 - - - 0;
#X obj 64 283 mtof;
#X floatatom 64 307 5 0 0 0 - - - 0;
#X msg 27 210 50;
#X msg 85 216 55;
#X msg 141 204 65;
#X connect 0 0 2 0;
#X connect 2 0 3 0;
#X connect 3 0 4 0;
#X connect 4 0 5 0;
#X connect 4 0 6 0;
#X connect 4 0 7 0;
#X connect 5 0 11 0;
#X connect 6 0 12 0;
#X connect 7 0 13 0;
#X connect 8 0 9 0;
#X connect 9 0 10 0;
#X connect 10 0 1 0;
#X connect 11 0 8 0;
#X connect 12 0 8 0;
#X connect 13 0 8 0;
#X restore 622 110 pd scales;
#X floatatom 623 145 5 0 0 0 - - - 0;
#X obj 627 243 phasor~;
#X msg 897 78 4300;
#X obj 867 247 line;
#X msg 821 187 1 200;
#X obj 817 118 delay;
#X msg 913 188 0 500;
#X obj 627 356 *~ 0.5;
#X obj 626 301 lop~ 100;
#X obj 573 729 drum_reverb;
#X obj 765 729 drum_reverb;
#X obj 956 735 drum_reverb;
#X obj 797 435 loadbang;
#X obj 1139 734 drum_reverb;
#X obj 772 565 unpack 0 0 0 0;
#X obj 195 460 s~ ambient-reverb;
#X obj 187 512 catch~ ambient-mix;
#X obj 573 690 r~ ambient-reverb;
#X obj 765 690 r~ ambient-reverb;
#X obj 956 696 r~ ambient-reverb;
#X obj 1139 695 r~ ambient-reverb;
#X obj 573 753 throw~ ambient-mix;
#X obj 765 753 throw~ ambient-mix;
#X obj 956 759 throw~ ambient-mix;
#X obj 1139 758 throw~ ambient-mix;
#X obj 177 44 metro 100;
#X msg 772 541 319 230 122 143;
#X connect 0 0 44 0;
#X connect 1 0 2 0;
#X connect 2 0 3 0;
#X connect 2 0 6 0;
#X connect 2 0 7 0;
#X connect 3 0 4 0;
#X connect 4 0 5 0;
#X connect 5 0 17 0;
#X connect 6 0 17 0;
#X connect 7 0 8 0;
#X connect 8 0 9 0;
#X connect 9 0 17 0;
#X connect 11 0 14 1;
#X connect 12 0 16 1;
#X connect 13 0 12 0;
#X connect 14 0 15 0;
#X connect 15 0 12 0;
#X connect 17 0 16 0;
#X connect 18 0 19 0;
#X connect 19 0 20 0;
#X connect 20 0 27 0;
#X connect 21 0 24 1;
#X connect 23 0 22 0;
#X connect 24 0 25 0;
#X connect 25 0 22 0;
#X connect 26 0 34 0;
#X connect 27 0 26 0;
#X connect 28 0 40 0;
#X connect 29 0 41 0;
#X connect 30 0 42 0;
#X connect 31 0 45 0;
#X connect 32 0 43 0;
#X connect 33 0 28 1;
#X connect 33 1 29 1;
#X connect 33 2 30 1;
#X connect 33 3 32 1;
#X connect 35 0 10 0;
#X connect 35 0 10 1;
#X connect 36 0 28 0;
#X connect 37 0 29 0;
#X connect 38 0 30 0;
#X connect 39 0 32 0;
#X connect 44 0 1 0;
#X connect 44 0 14 0;
#X connect 44 0 13 0;
#X connect 44 0 18 0;
#X connect 45 0 33 0;
