#N canvas 0 2 1252 1020 12;
#N canvas 0 22 450 278 (subpatch) 0;
#X array grain01 169229 float 2;
#X coords 0 1 169229 -1 200 140 1;
#X restore 15 20 graph;
#X obj 380 934 hip~ 15;
#X obj 212 970 dac~ 1 2;
#X obj 378 615 tabread4~ grain01;
#X obj 377 581 *~;
#X obj 461 400 tgl 15 0 empty empty empty 17 7 0 10 #fcfcfc #000000
#000000 0 1;
#X obj 465 477 float;
#X obj 647 201 vsl 15 128 0 1 0 0 empty empty empty 0 -9 0 10 #fcfcfc
#000000 #000000 0 1;
#X obj 259 334 r sampleCount;
#X obj 259 358 / 44100;
#X msg 210 404 1;
#X obj 248 450 /;
#X obj 527 251 vsl 15 128 100 1000 0 0 empty empty empty 0 -9 0 10
#fcfcfc #000000 #000000 0 1;
#X obj 377 534 phasor~;
#X obj 378 879 *~ 0.1;
#X obj 647 73 tgl 15 0 empty empty empty 17 7 0 10 #fcfcfc #000000
#000000 0 1;
#X obj 647 160 line;
#X obj 15 201 soundfiler;
#X obj 15 284 s sampleCount;
#X msg 841 143 1;
#X obj 842 181 +;
#X obj 863 36 tgl 50 0 empty empty empty 0 -10 0 12 #fcfcfc #000000
#000000 0 1;
#X obj 848 358 /;
#X floatatom 845 283 5 0 0 0 - - - 0;
#X obj 912 179 mod;
#X obj 811 722 *~ 0.8;
#X obj 851 657 line~;
#X obj 812 760 lop~ 2000;
#X msg 851 619 \$1 50;
#X obj 780 829 clip~ -1 1;
#X obj 647 93 metro 90;
#X obj 455 523 r sampleCount;
#X obj 227 692 tabread4~ grain01;
#X obj 222 633 *~;
#X msg 647 132 0 0 \, $f1 100;
#X obj 315 611 / 2;
#X obj 809 696 vd~ delay1;
#X obj 723 893 delwrite~ delay1 1000;
#X obj 819 477 line;
#X msg 831 439 \$1 100;
#X obj 845 306 - 1;
#X msg 1043 163 16;
#X obj 1043 187 - 1;
#X obj 461 420 metro 100;
#X obj 1110 90 loadbang;
#X obj 391 670 *~ 1;
#X obj 390 743 *~ 1;
#X obj 633 724 *~ 0.7;
#X msg 792 562 0.4;
#X obj 435 248 inlet;
#X obj 382 972 outlet~;
#X msg 15 177 read -resize choir_short.wav grain01;
#X obj 855 101 metro 50;
#X connect 1 0 50 0;
#X connect 3 0 45 0;
#X connect 4 0 3 0;
#X connect 5 0 43 0;
#X connect 7 0 6 1;
#X connect 8 0 9 0;
#X connect 9 0 10 0;
#X connect 9 0 11 1;
#X connect 10 0 11 0;
#X connect 11 0 13 0;
#X connect 13 0 4 0;
#X connect 13 0 33 0;
#X connect 14 0 1 0;
#X connect 15 0 30 0;
#X connect 17 0 18 0;
#X connect 19 0 20 0;
#X connect 20 0 24 0;
#X connect 20 0 23 0;
#X connect 21 0 52 0;
#X connect 22 0 39 0;
#X connect 23 0 40 0;
#X connect 24 0 20 1;
#X connect 25 0 27 0;
#X connect 26 0 36 0;
#X connect 27 0 29 0;
#X connect 28 0 26 0;
#X connect 29 0 37 0;
#X connect 30 0 34 0;
#X connect 31 0 4 1;
#X connect 31 0 35 0;
#X connect 32 0 14 0;
#X connect 33 0 32 0;
#X connect 34 0 16 0;
#X connect 35 0 33 1;
#X connect 36 0 25 0;
#X connect 38 0 7 0;
#X connect 39 0 38 0;
#X connect 40 0 22 0;
#X connect 41 0 24 1;
#X connect 41 0 42 0;
#X connect 42 0 22 1;
#X connect 43 0 6 0;
#X connect 44 0 41 0;
#X connect 44 0 48 0;
#X connect 44 0 51 0;
#X connect 44 0 21 0;
#X connect 45 0 46 0;
#X connect 45 0 47 0;
#X connect 46 0 14 0;
#X connect 47 0 37 0;
#X connect 47 0 14 0;
#X connect 48 0 28 0;
#X connect 51 0 17 0;
#X connect 52 0 19 0;
