#N canvas 88 211 575 411 12;
#X obj 257 98 inlet~;
#X obj 255 284 outlet~;
#X obj 408 104 inlet;
#X obj 336 142 vd~ reverb-\$0;
#X obj 336 208 lop~ 400;
#X obj 336 184 *~ 0.9;
#X obj 337 254 delwrite~ reverb-\$0 500;
#X connect 0 0 5 0;
#X connect 2 0 3 0;
#X connect 3 0 1 0;
#X connect 3 0 5 0;
#X connect 4 0 6 0;
#X connect 5 0 4 0;
